<svg width="17" height="18" fill="none" xmlns="http://www.w3.org/2000/svg"><path d="M5.098 6.949l7.125 1.931-2.694 4.382s0 0 0 0a.56.56 0 00-.083.294c0 1.978 1.648 3.583 3.67 3.583 2.02 0 3.669-1.605 3.669-3.583a.56.56 0 00-.084-.294l-.085.052.085-.052-2.337-3.802 1.685.457s0 0 0 0a.58.58 0 00.714-.396h0a.568.568 0 00-.404-.7l-3.095-.84-4.202-1.138V1.608a.824.824 0 00-.112-.44.525.525 0 00-.468-.239.551.551 0 00-.313.087.523.523 0 00-.18.213 1.139 1.139 0 00-.088.48v4.819L3.998 5.47.914 4.634A.582.582 0 00.2 5.03h0a.568.568 0 00.405.7s0 0 0 0l2.351.638L.262 10.75a.56.56 0 00-.083.294h.1-.1c0 .957.382 1.858 1.076 2.534a3.691 3.691 0 002.594 1.049c2.02 0 3.669-1.605 3.669-3.583a.56.56 0 00-.083-.294h0l-2.337-3.8zm10.456 7.176C15.291 15.198 14.3 16 13.115 16c-1.183 0-2.175-.803-2.439-1.876h4.878zm-4.5-1.138l2.061-3.353 2.061 3.353h-4.122zM5.91 10.475H1.787L3.85 7.122l2.06 3.353zm-2.062 3.014c-1.183 0-2.175-.803-2.439-1.876h4.879c-.264 1.073-1.256 1.876-2.44 1.876z" fill="#003466" stroke="#003466" stroke-width=".2"/></svg>