<svg width="17" height="18" viewBox="0 0 17 18" fill="none" xmlns="http://www.w3.org/2000/svg">
<path d="M5.09758 6.94866L12.223 8.88006L9.52897 13.2619C9.52896 13.2619 9.52896 13.2619 9.52896 13.2619C9.47451 13.3505 9.44564 13.452 9.44564 13.5556C9.44564 15.5338 11.094 17.1388 13.1152 17.1388C15.1363 17.1388 16.7846 15.5338 16.7846 13.5556C16.7846 13.452 16.7557 13.3505 16.7013 13.262L16.6161 13.3143L16.7013 13.2619L14.3642 9.46041L16.0493 9.91716C16.0493 9.91716 16.0493 9.91717 16.0493 9.91717C16.1009 9.93117 16.153 9.93788 16.2043 9.93788C16.457 9.93788 16.6913 9.77466 16.7633 9.52166L16.7634 9.52163C16.8502 9.21655 16.6665 8.90368 16.3588 8.82031L13.2645 7.98159L9.06246 6.84261L9.06246 1.60801C9.06246 1.46879 9.03668 1.30233 8.94984 1.16747C8.85878 1.02605 8.70662 0.92948 8.48181 0.92948C8.35705 0.92948 8.25321 0.960217 8.16937 1.01613C8.08604 1.07171 8.02881 1.1479 7.98974 1.22904C7.91321 1.38799 7.90117 1.57713 7.90117 1.70964L7.90117 6.52783L3.9979 5.46982L0.914398 4.63401C0.607728 4.55084 0.28686 4.72545 0.200275 5.02952L0.200268 5.02954C0.113472 5.33463 0.297147 5.64749 0.604786 5.73086C0.604788 5.73086 0.60479 5.73086 0.604791 5.73086L2.95633 6.36828L0.262327 10.7501C0.207867 10.8386 0.178975 10.9402 0.179053 11.0438L0.279053 11.0438L0.179053 11.0437C0.178987 12.0015 0.561416 12.9018 1.25464 13.5783C1.94782 14.2547 2.86936 14.627 3.84854 14.627C5.86965 14.627 7.51802 13.022 7.51802 11.0438C7.51802 10.9402 7.4891 10.8387 7.43471 10.7502L7.4347 10.7501L5.09758 6.94866ZM15.5543 14.1246C15.2908 15.1978 14.2985 16.0007 13.1152 16.0007C11.9317 16.0007 10.9395 15.1978 10.676 14.1246L15.5543 14.1246ZM11.054 12.9866L13.1152 9.63408L15.1763 12.9866L11.054 12.9866ZM5.90969 10.4748L1.78732 10.4748L3.84853 7.1223L5.90969 10.4748ZM3.84847 13.489C2.66506 13.489 1.67287 12.686 1.40932 11.6128L6.28766 11.6128C6.02411 12.686 5.03185 13.489 3.84847 13.489Z" fill="#003466" stroke="#003466" stroke-width="0.2"/>
</svg>
